<?xml version="1.0" encoding="utf-8"?>
<!-- Generator: Adobe Illustrator 14.0.0, SVG Export Plug-In . SVG Version: 6.00 Build 43363)  -->
<!DOCTYPE svg PUBLIC "-//W3C//DTD SVG 1.1//EN" "http://www.w3.org/Graphics/SVG/1.1/DTD/svg11.dtd">
<svg version="1.1" id="Layer_1" xmlns="http://www.w3.org/2000/svg" xmlns:xlink="http://www.w3.org/1999/xlink" x="0px" y="0px"
	 width="300px" height="300px" viewBox="0 0 300 300" enable-background="new 0 0 300 300" xml:space="preserve">
<path d="M68.741,110.804c4.929-1.653,8.731,3.471,13.57,3.485c1.592-0.771,1.701-2.741,2.405-4.158
	c-2.885-1.837-5.982-3.289-9.112-4.65c4.106-4.519,8.546-8.814,13.572-12.307c5.328-3.792,11.884-4.938,18.004-6.847
	c6.446-1.792,12.797-4.405,19.586-4.455c7.003,0.023,14.244,1.173,21.053-1.015c3.615-1.302,5.908-4.607,7.583-7.888
	c-1.379-2.92-2.404-6.372-5.36-8.117c-5.292-3.324-11.809-3.249-17.828-2.999c-14.513,1.176-27.904,8.264-38.975,17.412
	c-8.443,6.83-15.336,15.396-20.753,24.774C48.312,93.067,24.092,82.182,0,71.033v6.509C22.897,88.18,45.947,98.5,68.932,108.952
	C68.885,109.415,68.789,110.341,68.741,110.804z"/>
<path d="M300,151.094c-4.998-23.24-10.986-46.27-16.001-69.509c1.267-1.27,2.567-2.5,3.838-3.771
	c-1.59,0.291-3.174,0.591-4.718,1.054c-0.996-4.27-1.566-8.695-3.184-12.781c-0.774-2.682-3.867-1.331-5.588-0.53
	c0.277,5.534,2.166,10.796,3.238,16.195c-7.111,3.303-14.544,7.04-22.611,6.559c-7.055-0.462-14.084-1.282-21.125-1.907
	c-9.131-0.933-16.793-7.008-25.881-8.063c-4.072-0.564-7.599,1.831-10.73,4.078c-1.408,5.281,1.125,10.828,5.57,13.8
	c9.93,6.895,22.613,8.044,34.344,6.903c15.039-1.765,29.705-7.723,41.352-17.463c5.946,25.211,11.825,50.438,17.753,75.653
	c1.218,5.676,2.915,11.262,3.743,17.017V151.094z"/>
<path d="M69.569,258.04c23.841-20.643,47.509-41.485,70.776-62.769c5.307-5.459,10.453-11.07,15.516-16.757
	c6.302,4.062,13.26,6.963,19.606,10.943c2.526,1.508,3.013,4.736,2.88,7.429c-0.504,11.249-4.406,21.941-6.096,33.008
	c-1.908,9.865-3.318,19.813-4.652,29.771c4.32-7.344,9.646-14.087,13.379-21.77c5.227-11.752,10.607-23.436,15.787-35.207
	c3.184-8.688,6.025-19.448,0.074-27.622c-6.835-8.351-16.273-13.954-24.223-21.124c-0.237-1.85,0.019-3.758-0.465-5.569
	c-1.084-3.158-4.039-5.037-6.801-6.583c-3.395-1.348-6.967-0.27-10.401,0.163c-5.409-2.388-10.916-4.764-16.844-5.498
	c-4.75,0.727-9.704,3.316-11.436,8.072c-2.803,6.978,0.383,14.914,5.843,19.636c-9.537,13.609-19.099,27.204-28.637,40.814
	C92.048,222.409,80.881,240.272,69.569,258.04z"/>
<path d="M4.384,268.381c81.53-0.018,163.06,0.02,244.587,0.002c5,0.14,10.129,0.096,14.932-1.482
	c4.64-1.774,9.164-5.52,9.621-10.785c-1.254-0.851-2.492-2.034-4.145-1.669c-2.393,1.865-3.564,5.167-6.592,6.211
	c-3.73,1.404-7.795,1.49-11.729,1.693c-10.166,0.123-20.336-0.097-30.5,0.107c1.547-1.642,2.496-3.702,3.09-5.856
	c-1.073-1.112-2.209-2.374-3.916-2.277c-2.687,1.599-3.703,5.142-6.752,6.258c-4.111,1.531-8.6,1.553-12.931,1.795
	c-65.223,0.006-130.447,0-195.671,0.003C4.381,264.377,4.383,266.378,4.384,268.381z"/>
<circle cx="187.266" cy="52.357" r="21.6"/>
</svg>
